<!DOCTYPE svg PUBLIC "-//W3C//DTD SVG 1.1//EN" "http://www.w3.org/Graphics/SVG/1.1/DTD/svg11.dtd">
<!-- Uploaded to: SVG Repo, www.svgrepo.com, Transformed by: SVG Repo Mixer Tools -->
<svg width="800px" height="800px" viewBox="-3.6 -3.6 27.20 27.20" xmlns="http://www.w3.org/2000/svg" fill="#000000">
<g id="SVGRepo_bgCarrier" stroke-width="0">
<path transform="translate(-3.6, -3.6), scale(0.8499999999999999)" d="M16,29.322218457857765C18.42141717764894,28.943351749056372,19.907925706686832,26.61366206806299,21.988634098939183,25.318496550585785C24.110214088123573,23.997889946223115,26.992625902404246,23.739222657627128,28.345121440695564,21.637828055726757C29.741990815957113,19.46748909221122,29.35811091612936,16.677577066460756,29.208476977721922,14.100907713871264C29.046582992163486,11.31312256702082,29.34532846295128,8.128801939908115,27.44195634006417,6.085488393392026C25.543810255371092,4.0477851185133495,22.259486883539868,4.566712581283375,19.589627238590634,3.7748523211626246C16.910357151764607,2.9802009948648545,14.462193172226451,0.885475456416866,11.71961916572535,1.422361615124684C8.927336424542977,1.9689787533991396,6.871008222417528,4.332958685514452,5.152948030540763,6.600975964912623C3.512418754251932,8.766644410973988,2.1456790225933258,11.296602304620311,2.181818675348305,14.013245463028378C2.2159760007551648,16.580875678105144,4.222579335995113,18.556351153946387,5.3427298918064245,20.86701217983697C6.431240869744349,23.11240667607368,6.717539199533241,25.851117316011962,8.672363457496825,27.402025022259696C10.691338743421676,29.00382851784682,13.453764358515407,29.720614870597647,16,29.322218457857765" fill="#000000" strokewidth="0"/>
</g>
<g id="SVGRepo_tracerCarrier" stroke-linecap="round" stroke-linejoin="round"/>
<g id="SVGRepo_iconCarrier"> <path fill="#96949e" fill-rule="evenodd" d="M1.5,1.98975843e-15 L3.09355753,18.0557267 L9.99986611,20 L16.9059069,18.0557267 L18.5,0 L1.5,0 L1.5,1.98975843e-15 Z M15.0769709,5.85186222 L9.99370717,8.12461495 L9.9813893,8.12993559 L9.99370717,8.12993559 L14.8975585,8.12993559 L14.3352209,14.891627 L10.0014728,16.2147858 L9.99370717,16.2122655 L9.99370717,16.2147858 L5.63639442,14.8672641 L5.35522564,11.4620554 L5.36272348,11.4620554 L7.5103174,11.4620554 L7.51808301,11.4620554 L7.6586674,13.2259871 L9.97389147,13.8373005 L9.99370717,13.8314198 L9.99370717,13.8342201 L12.3908719,13.1282554 L12.5550209,10.2864744 L9.99370717,10.2783534 L5.21464125,10.2615514 L5.05076002,8.13021563 L9.99370717,5.97731728 L10.2818382,5.85214226 L9.99370717,5.85214226 L4.86331417,5.85214226 L4.60544223,3.67124055 L9.99370717,3.67124055 L15.2879814,3.67124055 L15.0769709,5.85186222 L15.0769709,5.85186222 Z"/> </g>
</svg>