<!DOCTYPE svg PUBLIC "-//W3C//DTD SVG 1.1//EN" "http://www.w3.org/Graphics/SVG/1.1/DTD/svg11.dtd">
<!-- Uploaded to: SVG Repo, www.svgrepo.com, Transformed by: SVG Repo Mixer Tools -->
<svg width="800px" height="800px" viewBox="-3.2 -3.2 38.40 38.40" version="1.1" xmlns="http://www.w3.org/2000/svg" xmlns:xlink="http://www.w3.org/1999/xlink" fill="#000000">
<g id="SVGRepo_bgCarrier" stroke-width="0">
<path transform="translate(-3.2, -3.2), scale(1.2)" d="M16,26.638528340660475C17.672643397079955,26.29541596951572,19.18772865676688,25.62769987328088,20.85145593481345,25.24367698683855C23.09863114315695,24.72498217354984,25.896969303237444,25.58053838422555,27.550172142407497,23.972508192069217C29.134990105209745,22.430994305886273,28.534909116596886,19.74875093709865,28.761721986848244,17.54955359297424C28.984980989563166,15.384814858005626,30.13406378899925,12.892520155176367,28.876041698247892,11.11676150261449C27.538227776594017,9.228372845245406,24.47497780024577,9.85921740873154,22.48117740851849,8.684263023149155C20.961645368384737,7.7887968360644075,20.275050839171808,5.871749860915297,18.68400700718016,5.110555511299854C16.954024914002947,4.282889693561838,15.001053225755644,4.343325890067238,13.089337132072226,4.190976535892167C10.501653589787336,3.9847576743262896,7.510640971925572,2.5197862334418835,5.416058864080865,4.053200113441157C3.382220709601348,5.542144205950432,3.454972561219854,8.722328316376954,3.456645919196731,11.242933273348196C3.458072652309307,13.392043389371976,5.3795717641360445,15.135422875583492,5.424842453585875,17.28405660217345C5.477410066391874,19.779016302896878,2.71722515878207,22.18732375736049,3.7352443618339652,24.465749565757072C4.691441815734339,26.605812297735476,7.669849678353463,27.06531172322723,9.977878637538296,27.47419360251831C12.002835636880466,27.832927499716497,13.985460716667198,27.051774434523207,16,26.638528340660475" fill="#000000" strokewidth="0"/>
</g>
<g id="SVGRepo_tracerCarrier" stroke-linecap="round" stroke-linejoin="round"/>
<g id="SVGRepo_iconCarrier"> <path fill="#96949e" d="M4.665 3.411l2.063 23.176 9.258 2.574 9.284-2.578 2.065-23.172h-22.671zM8.951 8.911l-0.068-0.763h7.107v2.842h-4.005l0.259 2.911h3.746v2.842h-6.341l-0.698-7.833zM22.518 14.665l-0.667 7.483-0.043 0.48-5.822 1.616-5.814-1.616-0.398-4.463h2.849l0.202 2.267 3.163 0.854 3.165-0.856 0.329-3.686h-3.485v-2.842h6.587l-0.069 0.763zM23.032 8.911l-0.129 1.441-0.057 0.639h-6.846v-2.842h7.1l-0.068 0.762z"/> </g>
</svg>