<!DOCTYPE svg PUBLIC "-//W3C//DTD SVG 1.1//EN" "http://www.w3.org/Graphics/SVG/1.1/DTD/svg11.dtd">
<!-- Uploaded to: SVG Repo, www.svgrepo.com, Transformed by: SVG Repo Mixer Tools -->
<svg width="256px" height="256px" viewBox="-2.4 -2.4 28.80 28.80" fill="none" xmlns="http://www.w3.org/2000/svg" stroke="#000000" stroke-width="0.00024000000000000003">
<g id="SVGRepo_bgCarrier" stroke-width="0">
<path transform="translate(-2.4, -2.4), scale(0.8999999999999999)" d="M16,29.959753864577838C18.318633404237413,29.435641895366484,19.583201277099057,26.948656070535158,21.72072729521564,25.90859033155957C24.086787971792155,24.757325446272727,27.306244728635935,25.480753283333062,29.1209966570661,23.575410951993298C30.955673854796128,21.649148704016106,31.156540350617792,18.66017365663012,31.158209009894303,16C31.159878273031783,13.338863669287598,30.608772665884906,10.631874492436822,29.130503825392573,8.41910008181419C27.691876431736155,6.265663713607008,25.373242519663542,4.925303672760936,23.027071704289746,3.828754779740546C20.81660020336266,2.7956287765051244,18.419182920281465,1.9642472042331158,16,2.2821899556687892C13.693001059864397,2.5853888516417136,11.813266573902034,4.133167360867718,9.964126906756848,5.545561134464933C8.29695554718084,6.818965458444468,7.01529052169162,8.405162075957097,5.771694659012313,10.094685158027065C4.39148033606908,11.969815195684246,2.7346131310857835,13.718704900837835,2.268998584577016,15.999999999999998C1.7588630011563078,18.499427509496805,1.9195049675387608,21.190840930785253,3.03913497660327,23.482958910188493C4.188781585765303,25.836527179604573,6.218895965297051,27.71216020770232,8.56197279744914,28.88304102289748C10.841770863500118,30.022300214669837,13.514112217460351,30.521672595915106,16,29.959753864577838" fill="#7ed0ec" strokewidth="0"/>
</g>
<g id="SVGRepo_tracerCarrier" stroke-linecap="round" stroke-linejoin="round"/>
<g id="SVGRepo_iconCarrier"> <path d="M3 6.25C3 4.45507 4.45507 3 6.25 3H17.75C19.5449 3 21 4.45507 21 6.25V17.75C21 19.5449 19.5449 21 17.75 21H6.25C4.45507 21 3 19.5449 3 17.75V6.25ZM12 9.5C11.5858 9.5 11.25 9.83579 11.25 10.25V16.25C11.25 16.3881 11.1381 16.5 11 16.5H9.75C9.33579 16.5 9 16.8358 9 17.25C9 17.6642 9.33579 18 9.75 18H11C11.9665 18 12.75 17.2165 12.75 16.25V10.25C12.75 9.83579 12.4142 9.5 12 9.5ZM14 11.25V12.75C14 13.7165 14.7835 14.5 15.75 14.5H16.25C16.3881 14.5 16.5 14.6119 16.5 14.75V16.25C16.5 16.3881 16.3881 16.5 16.25 16.5H14.75C14.3358 16.5 14 16.8358 14 17.25C14 17.6642 14.3358 18 14.75 18H16.25C17.2165 18 18 17.2165 18 16.25V14.75C18 13.7835 17.2165 13 16.25 13H15.75C15.6119 13 15.5 12.8881 15.5 12.75V11.25C15.5 11.1119 15.6119 11 15.75 11H17.25C17.6642 11 18 10.6642 18 10.25C18 9.83579 17.6642 9.5 17.25 9.5H15.75C14.7835 9.5 14 10.2835 14 11.25Z" fill="#96949e"/> </g>
</svg>