<!DOCTYPE svg PUBLIC "-//W3C//DTD SVG 1.1//EN" "http://www.w3.org/Graphics/SVG/1.1/DTD/svg11.dtd">
<!-- Uploaded to: SVG Repo, www.svgrepo.com, Transformed by: SVG Repo Mixer Tools -->
<svg width="800px" height="800px" viewBox="-4.16 -4.16 40.32 40.32" xmlns="http://www.w3.org/2000/svg" fill="#000000">
<g id="SVGRepo_bgCarrier" stroke-width="0">
<path transform="translate(-4.16, -4.16), scale(1.26)" d="M16,31.386109241010512C18.81026137642853,30.917217128567405,20.70714359100738,28.310208405199266,22.47579547957712,26.076534455399063C23.84443734473745,24.348042997825242,23.995816163522036,22.07494623361444,24.947444868458234,20.086161156760564C25.923049014737447,18.047270403494615,27.655026947386965,16.465048267775295,28.132047312840612,14.255674934693479C28.7591301061179,11.351270633665939,29.790521548394263,7.96023677312292,28.09188817425904,5.52231925324541C26.40559371751629,3.102110830189777,22.85928770223837,3.0511390569094443,19.957213965049185,2.522966897677664C17.316051728769903,2.0422801586259576,14.62595745614672,1.7939610962146513,12.067119914268908,2.6058404799439447C9.54191652916151,3.4070482684570056,7.530524747860088,5.162295707064235,5.6759755531875165,7.054181893141813C3.7174240701266377,9.052164209366552,1.2587381754690399,11.060144929969393,1.0450595171621622,13.849804170581212C0.8327673980871303,16.621361594141028,3.403791649104832,18.696935490020945,4.591686606010946,21.210002155922968C5.7594240592907955,23.680424352180218,5.929472551584661,26.67814548629957,7.968630454741188,28.49705494901268C10.135675431083639,30.43003846514582,13.135717285822828,31.864014813691313,16,31.386109241010512" fill="#000000" strokewidth="0"/>
</g>
<g id="SVGRepo_tracerCarrier" stroke-linecap="round" stroke-linejoin="round"/>
<g id="SVGRepo_iconCarrier">
<title>file_type_node2</title>
<path d="M16,2A14,14,0,1,1,2,16,14,14,0,0,1,16,2Z" style="fill:#96949e;fill-rule:evenodd"/>
<path d="M16,30a2.151,2.151,0,0,1-1.076-.288L11.5,27.685c-.511-.286-.262-.387-.093-.446a6.828,6.828,0,0,0,1.549-.7.263.263,0,0,1,.255.019l2.631,1.563a.34.34,0,0,0,.318,0l10.26-5.922a.323.323,0,0,0,.157-.278V10.075a.331.331,0,0,0-.159-.283L16.158,3.875a.323.323,0,0,0-.317,0L5.587,9.794a.33.33,0,0,0-.162.281V21.916a.315.315,0,0,0,.161.274L8.4,23.814c1.525.762,2.459-.136,2.459-1.038V11.085a.3.3,0,0,1,.3-.3h1.3a.3.3,0,0,1,.3.3V22.777c0,2.035-1.108,3.2-3.038,3.2a4.389,4.389,0,0,1-2.363-.642L4.661,23.788a2.166,2.166,0,0,1-1.076-1.872V10.075A2.162,2.162,0,0,1,4.661,8.2L14.922,2.276a2.246,2.246,0,0,1,2.156,0L27.338,8.2a2.165,2.165,0,0,1,1.077,1.87V21.916a2.171,2.171,0,0,1-1.077,1.872l-10.26,5.924A2.152,2.152,0,0,1,16,30Zm3.488-8.257c3.251,0,5.115-1.28,5.115-3.516,0-2.216-1.5-2.807-4.651-3.223-3.186-.422-3.51-.639-3.51-1.385,0-.616.274-1.438,2.634-1.438,2.108,0,2.885.454,3.2,1.875a.3.3,0,0,0,.288.232H23.9a.3.3,0,0,0,.295-.323c-.206-2.448-1.832-3.589-5.12-3.589-2.925,0-4.67,1.235-4.67,3.305,0,2.246,1.736,2.866,4.544,3.144,3.359.329,3.62.82,3.62,1.481,0,1.147-.92,1.636-3.082,1.636-2.715,0-3.313-.682-3.513-2.032a.3.3,0,0,0-.295-.251H14.351a.3.3,0,0,0-.3.3C14.054,19.682,14.995,21.743,19.485,21.743Z" style="fill:#"/>
</g>
</svg>