<!DOCTYPE svg PUBLIC "-//W3C//DTD SVG 1.1//EN" "http://www.w3.org/Graphics/SVG/1.1/DTD/svg11.dtd">
<!-- Uploaded to: SVG Repo, www.svgrepo.com, Transformed by: SVG Repo Mixer Tools -->
<svg width="217px" height="217px" viewBox="-9.92 -9.92 51.84 51.84" id="Camada_1" version="1.1" xml:space="preserve" xmlns="http://www.w3.org/2000/svg" xmlns:xlink="http://www.w3.org/1999/xlink" fill="#96949e" stroke="#96949e" stroke-width="0.00032">
<g id="SVGRepo_bgCarrier" stroke-width="0">
<path transform="translate(-9.92, -9.92), scale(1.62)" d="M16,31.082754800717037C18.163934832827998,31.07939942808867,20.688896241837845,31.675153342567427,22.375320278047674,30.31920378991233C24.165571009705324,28.879773595245904,23.581376466084798,25.883442849987553,24.849084660677818,23.96775161680829C25.89322363440811,22.389905952697813,28.25911038786762,21.959554533290373,29.045964799587818,20.238890919747263C29.833471105161752,18.516801769259445,29.69645819519709,16.425508078481176,29.123479082027934,14.620666767058355C28.57230700629631,12.884515991018757,26.479347133965454,12.014065200059704,25.887898671775666,10.291219040130578C25.11850228829897,8.050023586128649,26.688484687887016,5.1612153525288065,25.233904643179322,3.290620593773159C23.90886609042763,1.58661662304319,21.233523323980698,1.4793423752385695,19.07557650777425,1.5305501575206897C17.030188978565164,1.579086923344431,15.291395880721353,2.9018744457398613,13.358437135298137,3.572423810643439C11.633632899971543,4.170763732444525,9.788604759764276,4.3569038805519344,8.2226893702536,5.2954502593287724C6.594562460169252,6.271283708495069,5.137735020160936,7.540676607201082,4.093222576862413,9.125618849570547C3.024720596811344,10.746962793440007,2.086528885665851,12.600791281171972,2.128944455249698,14.542093314641289C2.170848386194418,16.45997835429714,3.719737950433846,17.97309154292075,4.326294890582236,19.793016718064543C4.928132030352273,21.598780512863538,4.851087807211929,23.56874966225736,5.704461677107034,25.270144344156215C6.671863571092798,27.198879797338737,7.736897403112692,29.27816565258248,9.615871025469028,30.338988446143944C11.502118402730282,31.403917824761262,13.83389924782046,31.086113531795203,16,31.082754800717037" fill="#000000" strokewidth="0"/>
</g>
<g id="SVGRepo_tracerCarrier" stroke-linecap="round" stroke-linejoin="round"/>
<g id="SVGRepo_iconCarrier"> <style type="text/css"> .st0{fill:#000000;} </style> <path d="M6,2h20c2.2,0,4,1.8,4,4v20c0,2.2-1.8,4-4,4H6c-2.2,0-4-1.8-4-4V6C2,3.8,3.8,2,6,2z"/> <g> <path class="st0" d="M27.5,16c0-1.6-1.9-2.9-4.7-3.8c0.7-2.9,0.4-5.2-0.9-5.9C21.5,6.1,21.2,6,20.8,6c-1.3,0-2.9,0.9-4.5,2.5 C14.6,6.9,13,6,11.7,6c-0.4,0-0.8,0.1-1.1,0.3C9.3,7,9,9.3,9.7,12.2C6.9,13.1,5,14.4,5,16s1.9,2.9,4.7,3.8c-0.7,2.9-0.5,5.2,0.9,6 c0.3,0.2,0.7,0.3,1.1,0.3c1.3,0,2.9-0.9,4.5-2.5c1.6,1.6,3.3,2.5,4.5,2.5c0.4,0,0.8-0.1,1.1-0.3c1.3-0.8,1.6-3.1,0.9-6 C25.6,18.9,27.5,17.5,27.5,16z M20.8,7.1c0.2,0,0.4,0,0.5,0.1c0.6,0.4,0.9,1.7,0.7,3.4c-0.1,0.4-0.1,0.9-0.2,1.3 c-0.9-0.2-1.9-0.4-2.9-0.5c-0.6-0.8-1.2-1.6-1.8-2.2C18.5,7.8,19.9,7.1,20.8,7.1z M19.3,17.8c-0.3,0.6-0.7,1.1-1,1.7 c-0.7,0-1.3,0.1-2,0.1s-1.4,0-2-0.1c-0.4-0.5-0.7-1.1-1-1.7c-0.3-0.6-0.6-1.2-0.9-1.8c0.3-0.6,0.6-1.2,0.9-1.8 c0.3-0.6,0.7-1.2,1.1-1.7c0.6,0,1.3-0.1,2-0.1s1.3,0,2,0.1c0.4,0.5,0.7,1.1,1.1,1.7c0.3,0.6,0.6,1.2,0.9,1.8 C20,16.6,19.6,17.2,19.3,17.8z M20.8,17.3c0.2,0.6,0.4,1.1,0.6,1.7c-0.6,0.1-1.2,0.2-1.8,0.3c0.2-0.3,0.4-0.6,0.6-1 C20.4,18,20.6,17.6,20.8,17.3L20.8,17.3z M16.2,22c-0.4-0.4-0.8-0.9-1.2-1.4c0.4,0,0.8,0,1.2,0c0.4,0,0.8,0,1.2,0 C17,21.1,16.6,21.6,16.2,22z M12.8,19.3c-0.6-0.1-1.2-0.2-1.8-0.3c0.2-0.6,0.4-1.1,0.6-1.7c0.2,0.3,0.4,0.7,0.6,1 C12.4,18.7,12.6,19,12.8,19.3L12.8,19.3z M11.7,14.7c-0.2-0.6-0.4-1.2-0.6-1.7c0.6-0.1,1.2-0.2,1.8-0.3c-0.2,0.3-0.4,0.7-0.6,1 C12,14,11.8,14.4,11.7,14.7z M16.2,10c0.4,0.4,0.8,0.9,1.2,1.4c-0.4,0-0.8,0-1.2,0c-0.4,0-0.8,0-1.2,0C15.4,10.9,15.8,10.4,16.2,10 z M20.2,13.7c-0.2-0.4-0.4-0.7-0.6-1c0.6,0.1,1.2,0.2,1.8,0.3c-0.2,0.6-0.4,1.2-0.6,1.7C20.6,14.4,20.4,14,20.2,13.7z M10.5,10.6 c-0.2-1.7,0-3,0.7-3.4c0.1-0.1,0.3-0.1,0.5-0.1c0.9,0,2.3,0.7,3.8,2.2c-0.6,0.7-1.2,1.4-1.8,2.2c-1,0.1-2,0.3-2.9,0.5 C10.6,11.5,10.5,11,10.5,10.6z M8.7,18.2c-1.6-0.7-2.6-1.5-2.6-2.3c0-0.7,1-1.6,2.6-2.3c0.4-0.2,0.8-0.3,1.3-0.4 c0.3,0.9,0.6,1.8,1,2.7c-0.4,0.9-0.8,1.8-1,2.7C9.5,18.6,9.1,18.4,8.7,18.2L8.7,18.2z M11.2,24.8c-0.6-0.4-0.9-1.7-0.7-3.4 c0.1-0.4,0.1-0.9,0.3-1.4c0.9,0.2,1.8,0.4,2.8,0.5c0.6,0.8,1.2,1.6,1.9,2.3c-1.5,1.4-2.9,2.2-3.8,2.2 C11.5,24.9,11.3,24.9,11.2,24.8L11.2,24.8z M22,21.4c0.2,1.7,0,3-0.7,3.4c-0.1,0.1-0.3,0.1-0.5,0.1c-0.9,0-2.3-0.7-3.8-2.2 c0.6-0.7,1.3-1.4,1.9-2.3c1-0.1,2-0.2,2.8-0.5C21.8,20.5,21.9,21,22,21.4L22,21.4z M23.8,18.2c-0.4,0.2-0.8,0.3-1.3,0.5 c-0.3-0.9-0.6-1.8-1-2.7c0.4-0.9,0.8-1.9,1-2.7c0.5,0.1,0.9,0.3,1.3,0.4c1.6,0.7,2.6,1.5,2.6,2.3C26.4,16.7,25.4,17.6,23.8,18.2 L23.8,18.2z"/> <path class="st0" d="M16.3,18.1c1.2,0,2.1-0.9,2.1-2.1s-0.9-2.1-2.1-2.1s-2.1,0.9-2.1,2.1S15.1,18.1,16.3,18.1z"/> </g> </g>
</svg>